<?xml version="1.0" standalone="no"?>
<!DOCTYPE svg PUBLIC "-//W3C//DTD SVG 20010904//EN"
 "http://www.w3.org/TR/2001/REC-SVG-20010904/DTD/svg10.dtd">
<svg version="1.0" xmlns="http://www.w3.org/2000/svg"
 width="768.000000pt" height="1024.000000pt" viewBox="0 0 768.000000 1024.000000"
 preserveAspectRatio="xMidYMid meet">

<g transform="translate(0.000000,1024.000000) scale(0.100000,-0.100000)"
fill="#000000" stroke="none">
<path d="M0 5120 l0 -5120 3840 0 3840 0 0 5120 0 5120 -3840 0 -3840 0 0
-5120z m3970 2701 c45 -118 114 -303 152 -410 l70 -196 -14 -62 c-9 -34 -11
-60 -7 -57 5 3 9 12 9 21 0 9 3 13 8 9 4 -4 9 -284 12 -622 l5 -615 210 213
c116 116 235 237 265 268 l55 55 230 38 c189 32 829 146 965 173 33 7 26 -2
-105 -137 -77 -79 -143 -143 -148 -141 -4 1 -6 -2 -5 -6 2 -5 -127 -148 -287
-317 -159 -170 -373 -396 -474 -504 -101 -108 -382 -416 -625 -685 l-440 -489
-66 69 c-36 38 -166 182 -290 319 -124 138 -326 360 -450 495 -124 135 -265
290 -315 345 -255 282 -792 863 -882 953 -56 56 -99 102 -95 102 4 0 75 -13
157 -29 83 -16 352 -64 599 -107 l448 -79 217 -225 c119 -124 240 -250 269
-280 l52 -55 1 610 c1 336 5 624 9 640 4 17 8 23 9 15 1 -8 10 -33 21 -55 l19
-40 -6 35 c-3 19 -15 59 -25 87 -19 51 -19 56 -3 110 26 90 232 637 317 843
10 24 11 24 33 -25 12 -27 59 -147 105 -264z m-1385 -2686 c369 -369 800 -805
959 -968 160 -164 293 -297 296 -297 4 0 155 150 336 332 492 498 936 941 874
874 -80 -87 -80 -87 -80 -97 0 -18 18 -8 52 29 34 36 128 124 118 110 -17 -23
-371 -374 -375 -371 -3 1 -3 0 0 -4 3 -4 -106 -120 -243 -257 -136 -138 -345
-351 -464 -473 l-215 -222 -204 207 c-354 359 -979 996 -1419 1447 -280 287
-550 572 -550 580 0 19 306 -279 915 -890z m3365 822 c0 -2 -19 -21 -42 -42
l-43 -40 40 43 c36 39 45 47 45 39z m-90 -101 c0 -2 -7 -7 -16 -10 -8 -3 -12
-2 -9 4 6 10 25 14 25 6z m-3409 -473 c113 -106 471 -461 794 -788 323 -328
592 -594 596 -593 5 2 262 256 572 566 310 309 567 559 572 555 4 -4 5 -3 2 3
-3 6 11 27 32 47 32 30 38 33 37 16 0 -10 -5 -19 -11 -18 -5 0 -12 -6 -15 -15
-7 -19 -139 -156 -151 -156 -5 0 -9 -5 -9 -11 0 -6 -138 -150 -307 -320 -170
-171 -400 -404 -513 -520 -113 -115 -208 -209 -211 -209 -8 0 -1247 1258
-1499 1521 -213 223 -198 213 111 -78z m2949 144 c0 -2 -12 -14 -27 -28 l-28
-24 24 28 c23 25 31 32 31 24z m-106 -113 c-10 -7 -25 -18 -31 -24 -21 -18
-15 2 8 27 12 12 26 20 32 16 6 -3 2 -12 -9 -19z m-76 -78 c-7 -8 -15 -12 -17
-11 -5 6 10 25 20 25 5 0 4 -6 -3 -14z m-88 -86 c0 -5 -5 -10 -11 -10 -5 0 -7
5 -4 10 3 6 8 10 11 10 2 0 4 -4 4 -10z m-20 -24 c0 -2 -8 -10 -17 -17 -16
-13 -17 -12 -4 4 13 16 21 21 21 13z m-3024 -2024 c63 -32 100 -81 118 -154 6
-28 6 -28 -48 -28 -53 0 -56 1 -72 35 -22 47 -59 65 -133 65 -70 0 -107 -24
-117 -76 -10 -53 24 -80 146 -115 155 -46 188 -66 224 -136 37 -74 5 -184 -69
-235 -74 -51 -223 -60 -305 -18 -68 35 -120 113 -120 180 0 30 1 30 53 30 l53
0 10 -42 c12 -53 47 -79 113 -86 106 -10 171 25 171 91 0 55 -34 79 -160 115
-134 39 -185 69 -211 125 -47 105 9 226 120 262 64 21 174 14 227 -13z m-660
-4 c5 -18 220 -587 249 -660 6 -16 1 -18 -42 -18 -62 0 -76 12 -98 78 l-17 53
-151 -3 -152 -3 -21 -60 -22 -60 -53 3 c-30 2 -55 5 -56 6 -1 1 27 78 63 171
36 94 80 211 99 260 18 50 47 127 65 173 l31 82 49 0 c42 0 50 -3 56 -22z
m1107 -188 c60 -116 110 -210 113 -210 2 0 51 95 109 210 l105 210 60 0 60 0
-2 -347 -3 -348 -29 -3 c-15 -2 -39 -1 -52 2 l-24 6 -1 238 0 237 -95 -188
-95 -188 -37 3 -37 3 -92 184 -93 184 0 -236 c0 -230 0 -236 -21 -242 -11 -4
-36 -4 -55 0 l-34 6 0 338 c0 186 3 341 7 344 3 4 29 7 57 7 l51 0 108 -210z
m930 88 c153 -408 207 -556 207 -567 0 -7 -20 -11 -54 -11 l-54 0 -24 63 -24
62 -154 0 -153 0 -19 -57 -20 -58 -59 0 -59 0 21 53 c12 28 34 86 49 127 45
121 191 493 196 502 3 4 27 8 53 8 l48 0 46 -122z m528 -85 c79 -114 154 -224
167 -245 13 -21 24 -38 25 -38 1 0 0 110 -1 245 l-4 245 55 0 55 0 7 -302 c4
-167 5 -323 3 -348 l-3 -45 -50 0 -50 0 -165 243 -165 243 -3 -240 -2 -241
-55 0 -55 0 0 345 0 345 49 0 48 0 144 -207z m876 75 c17 -73 44 -191 60 -263
15 -71 29 -123 31 -115 2 8 31 125 65 260 l62 245 49 0 49 0 67 -259 66 -258
27 128 c15 71 42 188 60 259 l33 130 57 3 c31 2 57 -1 57 -5 0 -9 -140 -540
-165 -627 l-16 -56 -54 0 -53 0 -16 53 c-8 28 -37 136 -63 239 l-48 186 -51
-196 c-28 -109 -56 -216 -63 -239 -13 -46 -29 -55 -89 -51 -39 4 -33 -15 -133
383 -38 154 -72 288 -75 298 -5 15 2 17 54 17 l58 0 31 -132z m1183 82 l0 -50
-160 0 -160 0 0 -100 0 -100 150 0 150 0 0 -50 0 -50 -150 0 -150 0 0 -95 0
-95 160 0 160 0 0 -55 0 -55 -212 2 -213 3 -3 348 -2 347 215 0 215 0 0 -50z
m435 39 c50 -14 100 -51 120 -89 19 -37 19 -123 0 -160 -8 -15 -26 -37 -40
-48 l-25 -20 35 -26 c48 -37 68 -80 68 -147 0 -66 -20 -107 -73 -150 -48 -39
-118 -50 -281 -47 l-134 3 -3 348 -2 347 147 0 c82 0 166 -5 188 -11z m-1805
-379 l0 -50 -135 0 -135 0 0 50 0 50 135 0 135 0 0 -50z m-2697 -571 c36 -45
5 -99 -57 -99 -32 0 -35 -3 -38 -32 -2 -21 -8 -33 -18 -33 -12 0 -16 19 -18
99 l-3 99 58 -6 c43 -4 63 -12 76 -28z m154 20 c15 -5 31 -16 35 -22 14 -22 8
-64 -12 -82 -19 -18 -19 -18 0 -45 24 -34 24 -37 4 -37 -8 0 -27 15 -41 34
-34 44 -53 43 -53 -2 0 -24 -5 -35 -15 -35 -12 0 -15 18 -15 100 l0 100 34 0
c19 0 47 -5 63 -11z m213 -9 c0 -17 -7 -20 -45 -20 -38 0 -45 -3 -45 -20 0
-17 7 -20 40 -20 29 0 40 -4 40 -15 0 -11 -11 -15 -40 -15 -36 0 -40 -2 -40
-25 0 -23 4 -25 45 -25 39 0 45 -3 45 -20 0 -19 -5 -21 -62 -18 l-63 3 -3 84
c-2 46 -1 90 2 98 4 9 25 13 66 13 53 0 60 -2 60 -20z m90 18 c0 -2 11 -33 24
-71 l23 -67 24 67 c19 55 29 69 47 71 23 3 23 3 20 -94 -2 -65 -7 -99 -15
-101 -8 -3 -13 16 -15 64 l-3 68 -23 -68 c-14 -39 -29 -66 -35 -64 -7 2 -22
30 -34 63 l-22 59 0 -63 c-1 -46 -4 -63 -13 -60 -9 3 -14 35 -16 101 -3 92 -2
97 18 97 11 0 20 -1 20 -2z m220 -99 c0 -76 -3 -100 -12 -97 -9 3 -14 35 -16
101 -2 82 0 97 13 97 12 0 15 -17 15 -101z m80 38 c0 -90 34 -132 74 -91 12
11 16 35 16 85 0 55 3 69 15 69 12 0 15 -16 15 -80 0 -67 -3 -83 -20 -100 -28
-28 -75 -26 -105 5 -22 21 -25 33 -25 100 0 60 3 75 15 75 12 0 15 -14 15 -63z
m235 1 c11 -31 23 -59 27 -63 3 -3 16 23 28 59 19 57 25 66 46 66 24 0 24 -1
24 -101 0 -90 -2 -100 -17 -97 -14 2 -19 16 -23 63 l-5 60 -19 -62 c-11 -35
-22 -63 -25 -63 -17 1 -29 20 -47 75 l-19 60 -3 -68 c-2 -48 -7 -67 -15 -64
-8 2 -13 36 -15 101 -3 97 -3 97 20 94 18 -2 27 -16 43 -60z m324 -8 l14 -65
12 56 c6 30 15 60 19 67 15 24 33 -2 46 -66 15 -73 13 -75 40 36 7 25 17 42
25 42 8 0 15 -3 15 -7 0 -18 -44 -179 -51 -187 -14 -16 -37 13 -43 57 -8 51
-26 85 -26 49 0 -43 -22 -112 -36 -112 -12 0 -19 17 -45 125 -6 22 -13 48 -16
58 -4 14 0 18 13 15 14 -2 23 -20 33 -68z m341 56 c0 -19 -34 -30 -66 -22 -21
6 -24 3 -24 -19 0 -23 4 -25 40 -25 29 0 40 -4 40 -15 0 -11 -11 -15 -40 -15
-36 0 -40 -2 -40 -25 0 -23 4 -25 45 -25 38 0 45 -3 45 -20 0 -18 -7 -20 -60
-20 l-60 0 0 100 0 100 60 0 c45 0 60 -3 60 -14z m158 -2 c23 -16 30 -58 11
-70 -8 -5 -6 -10 5 -16 9 -5 16 -22 16 -38 0 -39 -32 -60 -92 -60 l-48 0 0
100 0 100 43 0 c23 0 53 -7 65 -16z m332 -19 c34 -35 33 -97 -4 -133 -21 -21
-35 -26 -78 -27 l-53 0 -3 99 -3 99 58 -7 c42 -5 65 -13 83 -31z m190 14 c0
-19 -5 -21 -45 -17 -41 3 -45 1 -45 -19 0 -19 6 -22 43 -25 23 -2 42 -7 42
-13 0 -5 -19 -11 -42 -13 -39 -3 -43 -6 -43 -30 0 -25 3 -27 45 -28 50 -2 61
-7 50 -23 -3 -6 -33 -11 -66 -11 l-59 0 0 100 0 100 60 0 c54 0 60 -2 60 -21z
m92 -51 l24 -72 24 68 c22 61 42 88 56 74 2 -3 -10 -47 -28 -99 -44 -125 -56
-126 -97 -10 -35 102 -37 111 -17 111 9 0 24 -28 38 -72z m268 51 c0 -19 -5
-21 -45 -17 -41 3 -45 1 -45 -19 0 -20 5 -23 40 -23 29 0 40 -4 40 -15 0 -11
-11 -15 -40 -15 -38 0 -40 -2 -40 -30 0 -29 1 -30 51 -30 76 0 59 -24 -19 -28
l-62 -3 0 101 0 100 60 0 c54 0 60 -2 60 -21z m80 -64 l0 -85 46 0 c69 0 52
-24 -19 -28 l-57 -3 0 101 c0 82 3 100 15 100 12 0 15 -16 15 -85z m254 74
c24 -11 56 -62 56 -89 0 -27 -32 -78 -56 -89 -43 -19 -81 -13 -116 18 -87 78
8 209 116 160z m185 1 c39 -11 51 -24 51 -57 0 -34 -34 -63 -75 -63 -33 0 -35
-2 -35 -35 0 -24 -5 -35 -15 -35 -12 0 -15 18 -15 100 l0 100 28 0 c15 0 43
-4 61 -10z m144 -32 c9 -24 19 -56 23 -71 8 -36 14 -29 40 46 16 48 26 63 42
65 21 3 22 0 22 -97 0 -85 -2 -99 -15 -95 -11 5 -15 22 -15 68 l-1 61 -23 -65
c-13 -38 -29 -65 -37 -65 -8 0 -23 25 -36 60 l-22 60 0 -56 c-1 -59 -6 -71
-24 -63 -8 3 -12 35 -11 92 0 105 0 102 23 102 12 0 23 -13 34 -42z m307 22
c0 -17 -7 -20 -50 -20 -43 0 -50 -3 -50 -20 0 -17 7 -20 45 -20 33 0 45 -4 45
-15 0 -11 -12 -15 -46 -15 -44 0 -45 -1 -42 -27 3 -26 7 -28 51 -31 33 -2 47
-7 47 -18 0 -11 -15 -14 -65 -14 l-65 0 0 100 0 100 65 0 c58 0 65 -2 65 -20z
m117 -46 l38 -66 3 66 c2 50 7 66 17 66 12 0 15 -19 15 -100 0 -55 -3 -100 -7
-100 -17 0 -32 18 -67 75 l-36 60 0 -62 c0 -56 -2 -63 -20 -63 -19 0 -20 7
-20 95 0 88 1 95 20 95 14 0 31 -20 57 -66z m253 52 c0 -9 -12 -16 -27 -18
-28 -3 -28 -4 -31 -85 -2 -67 -5 -81 -17 -76 -11 4 -15 24 -15 84 l0 79 -30 0
c-29 0 -38 9 -23 23 3 4 37 7 75 7 52 0 68 -3 68 -14z m-4330 -86 l0 -30 -232
1 c-163 0 -226 3 -208 10 33 13 35 16 20 34 -11 13 11 15 204 15 l216 0 0 -30z
m4765 17 c-17 -13 -17 -15 6 -30 22 -16 14 -17 -149 -17 l-172 0 0 30 0 30
167 0 c142 0 164 -2 148 -13z"/>
<path d="M3851 7735 l-1 -270 88 -80 c115 -107 191 -169 197 -164 10 10 -122
379 -254 709 l-30 75 0 -270z"/>
<path d="M3679 7477 c-19 -17 -38 -40 -42 -50 -4 -10 -11 -16 -16 -13 -9 6
-37 -94 -32 -110 2 -4 -2 -10 -7 -13 -5 -3 -13 -22 -17 -41 l-8 -35 44 40
c162 145 219 201 219 215 0 9 -11 22 -25 28 -43 20 -78 14 -116 -21z"/>
<path d="M3777 7363 c-105 -95 -176 -167 -172 -174 3 -4 7 -71 10 -150 5 -118
18 -213 74 -524 38 -209 84 -465 102 -568 18 -104 36 -183 40 -175 4 7 33 148
64 313 31 165 83 421 116 570 76 338 109 493 109 504 0 14 -263 251 -278 251
-7 0 -36 -21 -65 -47z"/>
<path d="M4073 6825 c-13 -55 -34 -149 -48 -210 -76 -329 -150 -755 -164 -950
-6 -71 -9 -131 -7 -132 1 -2 38 34 81 80 43 45 112 116 151 157 l73 75 -9 135
c-5 74 -18 308 -30 520 -11 212 -22 394 -23 405 -1 11 -12 -25 -24 -80z"/>
<path d="M3586 6818 c-3 -35 -11 -175 -17 -313 -6 -137 -16 -347 -23 -465
l-12 -215 117 -125 c129 -138 169 -177 169 -165 0 87 -207 1325 -225 1343 -2
2 -6 -25 -9 -60z"/>
<path d="M3004 6243 c9 -94 34 -184 69 -246 21 -37 144 -174 352 -394 176
-186 341 -360 367 -388 l48 -50 67 70 c110 114 471 491 581 608 103 109 136
159 165 252 18 56 39 196 31 205 -3 2 -196 -187 -429 -422 l-423 -426 -205
217 c-113 119 -301 311 -418 426 l-211 210 6 -62z"/>
<path d="M5185 6260 c-3 -6 1 -7 9 -4 18 7 21 14 7 14 -6 0 -13 -4 -16 -10z"/>
<path d="M2420 6193 c102 -80 930 -951 1304 -1371 60 -67 114 -122 120 -122 6
0 76 73 156 162 454 508 1220 1317 1220 1290 0 -4 -31 -41 -70 -82 -74 -78
-75 -80 -61 -80 15 0 136 150 135 166 -1 8 4 14 12 14 7 0 18 9 24 21 10 18 7
17 -32 -7 -24 -14 -51 -33 -60 -42 -10 -8 -18 -12 -18 -9 0 3 -11 -5 -25 -19
-15 -15 -32 -23 -41 -20 -8 3 -13 2 -10 -3 3 -5 -49 -46 -117 -91 -67 -46
-159 -111 -204 -146 -79 -62 -471 -452 -762 -759 -78 -82 -146 -151 -150 -153
-4 -1 -129 125 -278 280 -560 585 -683 695 -994 888 -174 109 -198 122 -149
83z"/>
<path d="M5299 6153 c-13 -16 -12 -17 4 -4 9 7 17 15 17 17 0 8 -8 3 -21 -13z"/>
<path d="M5049 5963 c-9 -2 -21 -16 -28 -31 l-11 -27 19 22 c10 12 21 20 24
17 2 -3 7 2 10 11 4 8 5 14 4 14 -1 -1 -9 -3 -18 -6z"/>
<path d="M4926 5835 c-9 -14 -13 -25 -9 -25 12 1 46 50 35 50 -6 0 -17 -11
-26 -25z"/>
<path d="M4775 5650 c-16 -7 -17 -9 -3 -9 9 -1 20 4 23 9 7 11 7 11 -20 0z"/>
<path d="M1360 3039 c0 -8 -22 -75 -50 -149 -27 -74 -48 -136 -46 -137 2 -2
50 -2 108 -1 l104 3 -51 142 c-50 138 -65 171 -65 142z"/>
<path d="M3309 2904 l-56 -154 113 0 113 0 -29 78 c-16 42 -41 111 -57 153
l-28 77 -56 -154z"/>
<path d="M6260 3024 l0 -96 101 4 c96 3 102 4 125 31 28 33 32 82 9 114 -20
29 -73 43 -162 43 l-73 0 0 -96z"/>
<path d="M6260 2730 l0 -100 100 0 c119 0 153 13 170 64 9 27 8 42 -4 71 -21
50 -62 65 -176 65 l-90 0 0 -100z"/>
<path d="M1890 2221 c0 -26 4 -31 23 -31 57 1 66 53 9 58 -30 3 -32 1 -32 -27z"/>
<path d="M2070 2220 c0 -27 3 -30 30 -30 18 0 33 7 38 18 15 27 3 42 -34 42
-31 0 -34 -3 -34 -30z"/>
<path d="M3727 2253 c-4 -3 -7 -15 -7 -25 0 -13 8 -18 29 -18 37 0 50 19 26
37 -21 14 -38 17 -48 6z"/>
<path d="M3720 2150 c0 -25 4 -30 23 -30 13 0 32 6 42 14 16 12 17 16 6 30 -7
9 -26 16 -42 16 -26 0 -29 -4 -29 -30z"/>
<path d="M4022 2188 l3 -63 30 2 c87 6 83 123 -4 123 l-32 0 3 -62z"/>
<path d="M4920 2240 c-37 -37 -13 -120 36 -120 19 0 56 19 66 34 26 39 -10
106 -57 106 -14 0 -34 -9 -45 -20z"/>
<path d="M5140 2220 c0 -27 3 -30 30 -30 18 0 33 7 38 18 15 27 3 42 -34 42
-31 0 -34 -3 -34 -30z"/>
</g>
</svg>
